<?xml version="1.0" encoding="UTF-8"?>
<svg id="Layer_2" data-name="Layer 2" xmlns="http://www.w3.org/2000/svg" viewBox="0 0 26.41 26.45">
  <defs>
    <style>
      .cls-1 {
        fill: #bfafb8;
      }
    </style>
  </defs>
  <g id="Camada_1" data-name="Camada 1">
    <path class="cls-1" d="M26.4,8.57c0-1.27-.11-2.53-.54-3.74-.9-2.5-2.7-3.99-5.27-4.51-.97-.2-1.98-.2-2.98-.29-.15-.01-.31-.03-.46-.04h-7.91c-.64,.03-1.27,.06-1.91,.11-1.59,.11-3.09,.5-4.39,1.47C1.43,2.72,.54,4.25,.27,6.1,.09,7.29,.02,8.5,0,9.71c-.02,2.86,0,5.72,.04,8.58,.01,1.38,.2,2.74,.79,4,.97,2.05,2.59,3.29,4.78,3.82,1.35,.33,2.73,.33,4.11,.34,2.79,.02,5.58-.01,8.37-.04,1.24-.01,2.48-.13,3.65-.59,2.43-.95,3.88-2.74,4.37-5.27,.18-.94,.25-1.91,.26-2.87,.03-3.03,.02-6.06,0-9.1Zm-2.38,9.31c-.01,.91-.06,1.83-.33,2.71-.59,1.92-1.93,3.03-3.89,3.27-1.48,.18-2.99,.17-4.48,.22-.18,0-.35,0-.53,0v-7.79h2.75c.24-1.11,.46-2.17,.7-3.29h-3.52c.05-.97,.02-1.9,.16-2.81,.1-.7,.7-1.05,1.52-1.1,.55-.03,1.11-.05,1.67-.07,.03,0,.05-.02,.15-.05v-2.8c-1.26-.11-2.54-.29-3.82-.05-2.04,.39-3.25,1.87-3.31,4.05-.03,.92,0,1.83,0,2.79h-3.04v3.27h3.05v7.83c-1.19-.03-2.38-.05-3.56-.1-1.07-.04-2.1-.28-3-.9-1.17-.8-1.8-1.96-1.93-3.34-.14-1.48-.18-2.97-.2-4.46-.02-2.13,0-4.26,.04-6.38,.02-.88,.08-1.78,.25-2.64,.41-2,1.79-3.27,3.79-3.62,1.31-.23,2.64-.21,3.97-.22,2.31,0,4.62-.01,6.93,.02,.93,.02,1.88,.07,2.8,.25,2.09,.42,3.44,1.86,3.69,3.98,.16,1.38,.19,2.78,.21,4.18,.02,2.34-.01,4.69-.04,7.03Z"/>
  </g>
</svg>