<?xml version="1.0" encoding="UTF-8"?>
<svg id="Layer_2" data-name="Layer 2" xmlns="http://www.w3.org/2000/svg" viewBox="0 0 26.41 26.45">
  <defs>
    <style>
      .cls-1 {
        fill: #bfafb8;
      }
    </style>
  </defs>
  <g id="Camada_1" data-name="Camada 1">
    <g>
      <path class="cls-1" d="M9.24,0c2.64,0,5.27,0,7.91,0,.15,.01,.31,.03,.46,.04,.99,.09,2,.09,2.98,.29,2.57,.52,4.37,2.01,5.27,4.51,.44,1.21,.54,2.47,.54,3.74,0,3.03,.02,6.06,0,9.1-.01,.96-.08,1.93-.26,2.87-.49,2.53-1.94,4.33-4.37,5.27-1.17,.46-2.41,.58-3.65,.59-2.79,.03-5.58,.05-8.37,.04-1.38,0-2.76-.01-4.11-.34-2.19-.53-3.82-1.77-4.78-3.82C.24,21.02,.06,19.66,.05,18.28,.02,15.42-.02,12.56,0,9.71c0-1.2,.08-2.41,.26-3.6,.27-1.85,1.17-3.39,2.68-4.52C4.24,.61,5.75,.22,7.34,.11c.63-.04,1.27-.07,1.91-.11Zm3.99,24.13s0-.03,0-.04c.7,0,1.4,.02,2.09,0,1.5-.05,3-.04,4.48-.22,1.96-.24,3.29-1.35,3.89-3.27,.27-.88,.32-1.8,.33-2.71,.03-2.34,.06-4.69,.04-7.03-.01-1.39-.05-2.79-.21-4.18-.24-2.13-1.59-3.57-3.69-3.98-.91-.18-1.86-.24-2.8-.25-2.31-.04-4.62-.03-6.93-.02-1.33,0-2.65-.01-3.97,.22-2.01,.35-3.38,1.63-3.79,3.62-.18,.86-.24,1.76-.25,2.64-.05,2.13-.06,4.26-.04,6.38,.02,1.49,.06,2.98,.2,4.46,.13,1.37,.76,2.53,1.93,3.34,.9,.62,1.93,.86,3,.9,1.9,.07,3.81,.1,5.71,.15Z"/>
      <path class="cls-1" d="M6.42,13.24c-.01-3.74,3.05-6.8,6.8-6.8,3.75,0,6.77,3.01,6.8,6.78,.03,3.74-3.02,6.81-6.78,6.82-3.74,.01-6.8-3.03-6.81-6.79Zm6.79,4.4c2.44,0,4.41-1.94,4.42-4.38,.01-2.44-1.94-4.41-4.38-4.43-2.45-.01-4.43,1.95-4.43,4.4,0,2.44,1.95,4.41,4.39,4.41Z"/>
      <path class="cls-1" d="M20.32,4.59c.89,.02,1.57,.73,1.54,1.63-.02,.87-.74,1.55-1.62,1.54-.87-.01-1.57-.75-1.55-1.63,.02-.87,.74-1.55,1.62-1.53Z"/>
    </g>
  </g>
</svg>